<svg width="40" height="40" viewBox="0 0 40 40" fill="none" xmlns="http://www.w3.org/2000/svg">
<path fill-rule="evenodd" clip-rule="evenodd" d="M33.9469 2.0177H6.0531C3.8244 2.0177 2.0177 3.8244 2.0177 6.05309V33.9469C2.0177 36.1756 3.8244 37.9823 6.05309 37.9823H33.9469C36.1756 37.9823 37.9823 36.1756 37.9823 33.9469V6.0531C37.9823 3.82441 36.1756 2.0177 33.9469 2.0177ZM6.0531 0H33.9469C37.2899 0 40 2.71006 40 6.0531V33.9469C40 37.2899 37.2899 40 33.9469 40H6.05309C2.71006 40 0 37.2899 0 33.9469V6.05309C0 2.71006 2.71006 0 6.0531 0Z" fill="white"/>
<path fill-rule="evenodd" clip-rule="evenodd" d="M20.0579 9.65259C13.8355 9.65259 8.81738 13.667 8.81738 18.5406C8.81738 21.704 10.9049 24.4739 14.0362 26.0556L12.9764 30.0139C12.9564 30.0733 12.9533 30.1369 12.9675 30.1979C12.9817 30.2589 13.0125 30.3147 13.0567 30.3591C13.121 30.4158 13.2037 30.4472 13.2895 30.4474C13.3606 30.4417 13.4281 30.4136 13.4822 30.3672L18.0426 27.2921C18.7158 27.385 19.3944 27.4333 20.0739 27.4366C26.2883 27.4366 31.3144 23.4222 31.3144 18.5406C31.3144 13.659 26.2723 9.65259 20.0579 9.65259ZM12.7511 17.1355H11.5226C11.3704 17.1399 11.22 17.1009 11.0891 17.0231C11.0309 16.9866 10.981 16.9386 10.9423 16.8819C10.9036 16.8253 10.877 16.7612 10.8643 16.6938C10.8604 16.6511 10.8604 16.6082 10.8643 16.5655C10.8604 16.4855 10.876 16.4058 10.9095 16.3331C10.943 16.2604 10.9936 16.1969 11.0569 16.1479C11.1969 16.0466 11.3659 15.993 11.5387 15.9953H15.24C15.3935 15.9899 15.5449 16.032 15.6736 16.1158C15.7331 16.1506 15.7841 16.1982 15.823 16.2552C15.8619 16.3121 15.8876 16.3769 15.8984 16.445C15.9023 16.485 15.9023 16.5254 15.8984 16.5655C15.9022 16.6466 15.8867 16.7274 15.8532 16.8014C15.8197 16.8753 15.7692 16.9403 15.7057 16.9909C15.5691 17.0922 15.4018 17.1433 15.232 17.1355H14.0437V21.3587C14.0485 21.4487 14.0346 21.5386 14.0028 21.6229C13.971 21.7072 13.9221 21.7841 13.859 21.8485C13.7986 21.91 13.7259 21.9583 13.6457 21.9901C13.5655 22.0219 13.4796 22.0365 13.3934 22.0331C13.2426 22.0374 13.095 21.9892 12.9759 21.8967C12.8624 21.8063 12.7855 21.6779 12.7591 21.5353C12.7511 21.4767 12.7511 21.4173 12.7591 21.3587L12.7511 17.1355ZM16.4858 15.9873C16.3712 16.062 16.2883 16.1764 16.2529 16.3085L14.5508 20.9251C14.5418 20.9499 14.5309 20.9754 14.5198 21.0011L14.5198 21.0011C14.4915 21.067 14.4625 21.1347 14.4625 21.1982C14.4487 21.2779 14.4487 21.3593 14.4625 21.439C14.4582 21.4844 14.4582 21.5301 14.4625 21.5755C14.486 21.7086 14.5574 21.8285 14.6632 21.9127C14.7718 21.9942 14.9048 22.0367 15.0406 22.0331C15.1659 22.0489 15.2928 22.0207 15.3997 21.9533C15.5066 21.886 15.5868 21.7837 15.6267 21.6638L15.9639 20.6763H18.0755L18.4127 21.6638C18.4536 21.7814 18.5329 21.8817 18.6377 21.9487C18.7426 22.0157 18.867 22.0454 18.9908 22.0331C19.0713 22.035 19.1514 22.0204 19.226 21.99C19.3006 21.9596 19.3681 21.9142 19.4244 21.8565C19.4824 21.804 19.5283 21.7394 19.5588 21.6672C19.5893 21.5951 19.6037 21.5172 19.601 21.439C19.6037 21.3882 19.6037 21.3373 19.601 21.2865C19.5731 21.1642 19.5383 21.0435 19.4966 20.9251L17.8908 16.3888C17.8525 16.228 17.755 16.0876 17.6179 15.9953C17.4884 15.9218 17.3411 15.8856 17.1923 15.891H16.8872C16.747 15.8847 16.6079 15.9181 16.4858 15.9873ZM16.2931 19.769L17.0558 17.3603L17.8105 19.769H16.2931ZM19.7849 16.5656C19.7767 16.3854 19.8402 16.2093 19.9615 16.0758C20.0232 16.0136 20.0972 15.965 20.1788 15.9332C20.2604 15.9014 20.3477 15.887 20.4352 15.891C20.5856 15.8893 20.7324 15.9373 20.8527 16.0276C20.9642 16.1218 21.0383 16.2528 21.0615 16.3969C21.0694 16.4528 21.0694 16.5096 21.0615 16.5656V20.7888H23.2694C23.4225 20.7868 23.5729 20.8285 23.703 20.9091C23.7614 20.9452 23.8117 20.9932 23.8504 21.0499C23.8891 21.1066 23.9155 21.1708 23.9278 21.2383V21.3588C23.9316 21.4388 23.9161 21.5184 23.8826 21.5911C23.849 21.6638 23.7984 21.7273 23.7351 21.7763C23.5951 21.8777 23.4262 21.9311 23.2534 21.9288H20.5396C20.3668 21.9399 20.195 21.895 20.0498 21.8004C19.92 21.7034 19.8335 21.5592 19.809 21.399C19.8031 21.3108 19.8031 21.2222 19.809 21.134L19.7849 16.5656ZM24.2493 16.0758C24.1309 16.2111 24.0679 16.3859 24.0727 16.5656L24.0245 21.3187C24.0166 21.3773 24.0166 21.4368 24.0245 21.4954C24.0509 21.638 24.1279 21.7662 24.2413 21.8566C24.3579 21.948 24.5026 21.9963 24.6508 21.9932C24.7394 21.9969 24.8279 21.9824 24.9107 21.9506C24.9936 21.9189 25.069 21.8704 25.1325 21.8084C25.2509 21.6732 25.3139 21.4983 25.3091 21.3187V19.9779L26.0237 19.2312L27.5171 21.6398C27.579 21.7527 27.6671 21.8491 27.774 21.9208C27.8728 21.9728 27.9836 21.9977 28.0952 21.9932C28.263 21.9955 28.4269 21.9418 28.5608 21.8406C28.6321 21.78 28.6875 21.7031 28.7225 21.6164C28.7574 21.5297 28.7709 21.4358 28.7616 21.3428V21.3027C28.7173 21.1677 28.6522 21.0403 28.5689 20.9252V20.845L26.9631 18.356L28.2959 16.8947C28.3547 16.8284 28.4058 16.7557 28.4484 16.678C28.4903 16.6046 28.5124 16.5216 28.5127 16.4371C28.5088 16.4186 28.5088 16.3995 28.5127 16.3809C28.5159 16.365 28.5159 16.3486 28.5127 16.3327C28.5012 16.2679 28.4769 16.2061 28.441 16.1509C28.4051 16.0957 28.3585 16.0483 28.3039 16.0115C28.1881 15.9324 28.0508 15.8903 27.9105 15.8911C27.8145 15.8892 27.72 15.9143 27.6375 15.9634C27.55 16.0332 27.4669 16.1082 27.3886 16.1882L25.3573 18.5326V16.5656C25.3613 16.5095 25.3613 16.453 25.3573 16.3969C25.3314 16.2519 25.2545 16.121 25.1405 16.0276C25.0091 15.9319 24.8487 15.8844 24.6864 15.8931C24.524 15.9019 24.3696 15.9665 24.2493 16.0758Z" fill="white"/>
</svg>
