<svg width="40" height="40" viewBox="0 0 40 40" fill="none" xmlns="http://www.w3.org/2000/svg">
<path d="M31.9818 14.7965C31.6986 13.7345 30.8668 12.9027 29.8225 12.6195C27.911 12.1062 20.2827 12.1062 20.2827 12.1062C20.2827 12.1062 12.6367 12.1062 10.7429 12.6195C9.69863 12.9027 8.86677 13.7345 8.58359 14.7965C8.07031 16.708 8.07031 20.708 8.07031 20.708C8.07031 20.708 8.07031 24.708 8.58359 26.6195C8.86677 27.6814 9.69863 28.5133 10.7429 28.7965C12.6544 29.3097 20.2827 29.3098 20.2827 29.3098C20.2827 29.3098 27.9287 29.3097 29.8225 28.7965C30.8668 28.5133 31.6986 27.6814 31.9818 26.6195C32.4951 24.708 32.4951 20.708 32.4951 20.708C32.4951 20.708 32.4951 16.708 31.9818 14.7965ZM17.7871 24.3363V17.0797L24.1765 20.708L17.7871 24.3363Z" fill="white"/>
<path fill-rule="evenodd" clip-rule="evenodd" d="M33.9469 2.0177H6.0531C3.8244 2.0177 2.0177 3.8244 2.0177 6.05309V33.9469C2.0177 36.1756 3.8244 37.9823 6.05309 37.9823H33.9469C36.1756 37.9823 37.9823 36.1756 37.9823 33.9469V6.0531C37.9823 3.82441 36.1756 2.0177 33.9469 2.0177ZM6.0531 0H33.9469C37.2899 0 40 2.71006 40 6.0531V33.9469C40 37.2899 37.2899 40 33.9469 40H6.05309C2.71006 40 0 37.2899 0 33.9469V6.05309C0 2.71006 2.71006 0 6.0531 0Z" fill="white"/>
</svg>
